<?xml version="1.0" encoding="utf-8"?>
<!-- Generator: Adobe Illustrator 19.0.0, SVG Export Plug-In . SVG Version: 6.00 Build 0)  -->
<svg version="1.1" id="Layer_1" xmlns="http://www.w3.org/2000/svg" xmlns:xlink="http://www.w3.org/1999/xlink" x="0px" y="0px"
	 viewBox="-254.1 373.9 95 30" style="enable-background:new -254.1 373.9 95 30;" xml:space="preserve">
<style type="text/css">
	.st0{fill:none;}
	.st1{fill:#F0C419;}
	.st2{fill:#EC3824;}
</style>
<rect x="-255" y="372" class="st0" width="100" height="50"/>
<g>
	<path class="st1" d="M-249.8,377.2h2.9c1.6,0,2.8,0.4,3.5,1.2s1.1,2,1.1,3.7c0,2.4-0.9,3.9-2.7,4.5c2,0.4,2.9,2,2.9,4.7
		c0,1.5-0.4,2.6-1.1,3.4s-1.7,1.2-3,1.2h-3.8V377.2z M-247.3,379.1v6.5c1,0,1.7-0.3,2.1-0.7s0.7-1.3,0.7-2.4c0-1.3-0.2-2.1-0.6-2.6
		S-246.2,379.1-247.3,379.1z M-247.3,387.4v6.5c1,0,1.7-0.2,2.1-0.7s0.6-1.2,0.6-2.4c0-1.3-0.2-2.2-0.6-2.7
		S-246.3,387.4-247.3,387.4z"/>
	<path class="st1" d="M-231.4,391.8c0,1.5-0.3,2.6-0.9,3.2s-1.6,1-2.9,1s-2.4-0.3-3-1s-0.9-1.7-0.9-3.1V383h2.4v9
		c0,1.4,0.5,2.1,1.5,2.1c0.5,0,0.9-0.2,1.1-0.5s0.3-1,0.3-1.8V383h2.4V391.8z"/>
	<path class="st1" d="M-221,383l-4.5,11h4.1v1.8h-7.3l4.5-11h-4.3V383H-221z"/>
	<path class="st1" d="M-211.3,383l-4.5,11h4.1v1.8h-7.3l4.5-11h-4.3V383H-211.3z"/>
	<path class="st1" d="M-201.7,379.3h-4.3v5.9h3.8v2.1h-3.8v8.5h-2.5v-18.7h6.8V379.3z"/>
	<path class="st1" d="M-192.2,389.8h-5.4c0,1.4,0.1,2.4,0.3,3.1c0.2,0.7,0.6,1.1,1.4,1.1c0.5,0,0.9-0.2,1.1-0.6s0.3-1.1,0.3-1.9h2.2
		c-0.1,3-1.3,4.5-3.8,4.5c-2.7,0-4-2.1-4-6.3c0-4.6,1.4-6.9,4.1-6.9c1,0,1.9,0.4,2.7,1.2c0.7,0.8,1.1,2.4,1.1,4.9V389.8z
		 M-194.6,388c0-1.3-0.1-2.2-0.3-2.7s-0.6-0.8-1.1-0.8c-0.6,0-1.1,0.3-1.3,0.9c-0.2,0.6-0.3,1.5-0.3,2.7H-194.6z"/>
	<path class="st1" d="M-181.3,389.8h-5.4c0,1.4,0.1,2.4,0.3,3.1c0.2,0.7,0.6,1.1,1.4,1.1c0.5,0,0.9-0.2,1.1-0.6s0.3-1.1,0.3-1.9h2.2
		c-0.1,3-1.3,4.5-3.8,4.5c-2.7,0-4-2.1-4-6.3c0-4.6,1.4-6.9,4.1-6.9c1,0,1.9,0.4,2.7,1.2c0.7,0.8,1.1,2.4,1.1,4.9V389.8z
		 M-183.7,388c0-1.3-0.1-2.2-0.3-2.7s-0.6-0.8-1.1-0.8c-0.6,0-1.1,0.3-1.3,0.9c-0.2,0.6-0.3,1.5-0.3,2.7H-183.7z"/>
	<path class="st1" d="M-172.7,376.5h2.4v19.3h-2.4v-1.7h-0.1c-0.6,1.3-1.4,1.9-2.5,1.9c-0.6,0-1.2-0.2-1.7-0.6
		c-0.5-0.4-0.9-1-1.1-1.8s-0.3-2-0.3-3.8c0-2,0.1-3.4,0.3-4.3s0.5-1.5,1-2s1.1-0.7,1.9-0.7c1,0,1.8,0.6,2.4,1.7h0.1V376.5z
		 M-172.7,389.2c0-1.6-0.1-2.7-0.3-3.4s-0.6-1-1.2-1s-1,0.3-1.2,1s-0.3,1.8-0.3,3.4c0,1.7,0.1,2.8,0.3,3.6c0.2,0.7,0.6,1.1,1.2,1.1
		c0.6,0,1-0.4,1.2-1.1C-172.8,392.1-172.7,390.9-172.7,389.2z"/>
</g>
<g>
	<path class="st2" d="M-176.5,392.8c0,1-1.1,2.6-3.2,5c-2.1,2.4-3.5,3.6-4,3.6c-0.3,0-0.7-0.7-1.3-2.2c-0.6-1.4-1.2-2.9-1.7-4.3
		c-0.7-1.6-1.4-2.6-2-2.9c-0.2-0.1-0.2-0.2-0.2-0.3c0-0.2,0.2-0.2,0.5-0.2c0.7,0,1.3,0,1.7,0.1c0.5,0.1,0.7,0.2,0.8,0.5l2,5.2
		c0.2,0.4,0.3,0.8,0.6,1.3c0.4,0.7,0.6,1.1,0.8,1.1c0.5,0,1.3-1,2.5-2.9c1.3-2.2,1.9-4,1.9-5.6c0-0.4,0.1-0.7,0.2-0.7
		c0.2,0,0.5,0.3,0.9,0.9C-176.7,392-176.5,392.5-176.5,392.8z"/>
	<path class="st2" d="M-164.2,399.8l-0.9-4c-0.3-1.2-0.5-2-0.8-2.4c-0.2-0.4-0.6-0.6-1-0.6c-0.7,0-1.6,0.7-2.6,2
		c-1.1,1.5-2,3.1-2.6,5c-0.1,0.3-0.2,0.4-0.3,0.4c-0.3,0-0.6-0.1-0.9-0.2c-0.2-0.2-0.4-0.3-0.4-0.6c0.1-0.7,0.2-1.5,0.2-2.5
		s0.1-2,0.1-2.9c0-0.9,0-1.6-0.1-2.1s-0.1-0.8-0.2-1.1c0-0.1,0.1-0.2,0.2-0.2c0.2,0,0.6,0.1,1.1,0.3s0.8,0.4,0.8,0.6
		c0,0.3,0,0.7-0.1,1.1s-0.1,1.2-0.3,2.4l-0.4,3c0.8-1.6,1.7-3.1,2.8-4.3c1.4-1.7,2.8-2.5,4-2.5c0.6,0,1.1,0.2,1.4,0.6
		c0.2,0.3,0.4,0.9,0.6,1.8l1.1,4.8c0.1,0.3,0.1,0.5,0.2,0.7c0.2,0.3,0.3,0.5,0.6,0.5c0.1,0,0.1,0.1,0.1,0.1c0,0.3-0.3,0.5-0.8,0.8
		c-0.5,0.3-0.9,0.4-1.2,0.4C-163.7,401.1-164,400.7-164.2,399.8z"/>
</g>
</svg>
